<svg xmlns="http://www.w3.org/2000/svg" viewBox="0 0 101.45 164.19"><title>Asset 6</title><path d="M92.44,41.93A54.42,54.42,0,0,0,89,26.44a45.44,45.44,0,0,0-5.51-10.23A37.39,37.39,0,0,0,72.44,6a21.92,21.92,0,0,0-4.81-2.14A49.39,49.39,0,0,0,52.84,1.62c-23.44,0-45,16.58-47.4,40.77l0,.32H3.78l0-.48C6.27,17.22,28.57,0,52.84,0A50.63,50.63,0,0,1,70.4,3.06c16.71,6,29.68,20.84,30.85,39.12q.12,2,.18,3.91,0,.35,0,.7v117.4H92.62v-.36q0-58.66,0-117.32l-.11-3.69,0-.27q0-.17,0-.34Z" fill="#fff"/><path d="M92.41,41.54l.09,1.27v.35c-20.27.16-41.68,3-58.57,16.92a68,68,0,0,0-24.6,54.83c.34,10.67,2.66,19.58,9,28.44A45.37,45.37,0,0,0,44.1,161.08c10,2.52,20.94,1.2,30.31-2.63a52.75,52.75,0,0,0,13.44-7.89q1.47-1.19,2.84-2.47.68-.64,1.34-1.31c.18-.18.58-1,.58-.48v2c0,.45-.38.51-.62.73q-.72.68-1.47,1.34-1.53,1.34-3.15,2.55c-16.93,12.67-40,14.62-59,5.73C8,149.09-2,129.86.34,107.8,2.62,86.53,15.89,68.66,33.19,57.41,52,45.19,70.69,41.73,92.41,41.54Z" fill="#fff"/></svg>