<svg xmlns="http://www.w3.org/2000/svg" viewBox="0 0 136.63 221.6"><defs><style>.cls-1{fill:#fff;}.cls-1,.cls-2{stroke:#fff;stroke-linecap:square;stroke-width:1.18px;}.cls-2{fill:none;}</style></defs><title>Asset 6</title><g id="Layer_2" data-name="Layer 2"><g id="logo"><path class="cls-1" d="M94.57,4.67c18.72,6.7,34,21.36,39.28,41,2,7.44,2.09,14.83,2.09,22.38v152.1c0,.17.27.83-.08.83h-9.4c-.44,0-.29-.38-.29-.66V71.82c0-6.58.19-13.12-.67-19.69C123,33.11,113.1,13.51,94.57,4.67Z"/><path class="cls-1" d="M63.31,68.29c-17.09,7.83-33,18.7-44.52,34.06S.4,135.32.59,154.88c.41,42.05,36.16,68.28,76.14,65.83A59.15,59.15,0,0,1,29.6,201.56C17.2,188,12.62,170.79,12,153.21,10.67,116.52,30.29,84.22,63.31,68.29Z"/><path class="cls-2" d="M5.78,56.86c2-20.22,14.16-37.57,31.58-47.43A69.07,69.07,0,0,1,94.57,4.67"/><path class="cls-2" d="M76.3,220.73a80.31,80.31,0,0,0,18.12-3.09c12.55-4,22.62-9.9,31.75-19.5"/><path class="cls-2" d="M63.31,68.29Q87.66,57.06,126,56.91"/></g></g></svg>