<svg xmlns="http://www.w3.org/2000/svg" viewBox="0 0 114.75 209.09"><defs><style>.cls-1{fill:#fff;}.cls-1,.cls-2{stroke:#fff;stroke-linecap:square;stroke-width:1.18px;}.cls-2{fill:none;}</style></defs><title>Asset 11</title><g id="Layer_2" data-name="Layer 2"><g id="logo"><path class="cls-1" d="M73.41,205.16C98,193.71,109.87,159.65,114,136.92h-8.43C102.81,156.6,94.22,193,73.41,205.16Z"/><path class="cls-1" d="M113.38,68.76C108.89,46.87,97,14.91,73.41,3.94c20,11.69,28.66,45.84,31.69,64.82Z"/><path class="cls-1" d="M44.12,3.94C26.75,12,15.74,31.93,9.87,48.21,3.2,66.71.59,85,.59,104.55s2.61,37.84,9.28,56.34c5.87,16.28,16.88,36.2,34.25,44.27C28.92,196.27,20.4,173.89,16.39,159c-4.87-18-6.71-35.92-6.71-54.49s1.84-36.47,6.71-54.48C20.4,35.21,28.92,12.83,44.12,3.94Z"/><path class="cls-2" d="M73.41,3.94a33.7,33.7,0,0,0-29.29,0"/><path class="cls-2" d="M44.12,205.16a33.7,33.7,0,0,0,29.29,0"/></g></g></svg>