<svg xmlns="http://www.w3.org/2000/svg" viewBox="0 0 91.66 166.33"><title>Asset 11</title><path d="M91.15,55.62l-.2-1A115.45,115.45,0,0,0,85.12,35,84,84,0,0,0,77.37,19.9a58.81,58.81,0,0,0-6.87-8.64A39.92,39.92,0,0,0,58.84,2.73,27.51,27.51,0,0,0,35,2.73a36.5,36.5,0,0,0-7.49,4.73A49.23,49.23,0,0,0,20.82,14,74.07,74.07,0,0,0,9.47,33,117.88,117.88,0,0,0,1.64,61.34,145.39,145.39,0,0,0,.42,94.24a138.28,138.28,0,0,0,2.72,18.92,112.42,112.42,0,0,0,6.32,20.16,85.75,85.75,0,0,0,5.13,10.21,64.91,64.91,0,0,0,6.22,8.8,49,49,0,0,0,6.63,6.54A36.59,36.59,0,0,0,35,163.6a27.51,27.51,0,0,0,23.88,0,40.15,40.15,0,0,0,12-8.88,58.9,58.9,0,0,0,6.05-7.57A82.76,82.76,0,0,0,85,131.65,116.78,116.78,0,0,0,91.48,109l.18-1H83.31l-.1.7A141.8,141.8,0,0,1,78.86,129a94,94,0,0,1-6,15.63,58.63,58.63,0,0,1-5.41,8.86,38.65,38.65,0,0,1-4.84,5.39A21.18,21.18,0,0,1,52.65,164a25.21,25.21,0,0,1-11.46,0,21.18,21.18,0,0,1-10-5.23,37.69,37.69,0,0,1-4-4.29,58.66,58.66,0,0,1-7.12-11.74,106.45,106.45,0,0,1-7.31-22,157.94,157.94,0,0,1-2.87-17.27A186,186,0,0,1,9,74.9a173.23,173.23,0,0,1,2.07-20.53c.75-4.58,1.71-9.14,2.9-13.63a94.1,94.1,0,0,1,8.05-21A46.41,46.41,0,0,1,31.22,7.5a21.18,21.18,0,0,1,10-5.23,25.21,25.21,0,0,1,11.46,0,21.19,21.19,0,0,1,9.91,5.2,38.13,38.13,0,0,1,4.52,5,56.74,56.74,0,0,1,5.27,8.38,90.32,90.32,0,0,1,6,14.8A136.61,136.61,0,0,1,82.8,54.94l.11.68Z" fill="#fff"/></svg>