<svg xmlns="http://www.w3.org/2000/svg" viewBox="0 0 176.15 277.25"><defs><style>.cls-1{fill:#fff;}.cls-1,.cls-2{stroke:#fff;stroke-linecap:square;stroke-width:1.18px;}.cls-2{fill:none;}</style></defs><title>Asset 8</title><g id="Layer_2" data-name="Layer 2"><g id="logo"><path class="cls-1" d="M55.69,10.39C35.14,23.31,21.28,46,13.07,67.57,4.21,90.85.59,113.86.59,138.63s3.63,47.79,12.49,71.08c8.21,21.57,22.07,44.24,42.62,57.16-17.44-14.18-27.88-39.43-33.47-59.61-6.28-22.68-8.78-45.19-8.78-68.62S16,92.68,22.23,70C27.81,49.83,38.25,24.57,55.69,10.39Z"/><path class="cls-1" d="M175.26,127.27c1.34,25.7-1.86,52.62-10.26,77.08-8,23.38-22.39,48.58-44.55,62.51,18.8-15.29,29.52-43.38,34.9-65.1,6.14-24.74,8.11-49.12,7.12-74.5Z"/><path class="cls-1" d="M159,93.18c-4.42-26.38-15.48-64-38.56-82.79,28.11,17.67,43.64,53,50.23,82.79Z"/><path class="cls-2" d="M55.69,10.39A66.39,66.39,0,0,1,68.43,4.11,56.29,56.29,0,0,1,88.07.59c12.22,0,22.17,3.38,32.38,9.8"/><path class="cls-2" d="M55.69,266.86a66.39,66.39,0,0,0,12.74,6.28,56.29,56.29,0,0,0,19.64,3.52c12.22,0,22.17-3.38,32.38-9.8"/><line class="cls-2" x1="162.47" y1="127.27" x2="88.07" y2="127.27"/></g></g></svg>