<svg xmlns="http://www.w3.org/2000/svg" viewBox="0 0 140.22 220.32"><title>Asset 8</title><path d="M69.75,102v-1.62h70.2l0,.77q.24,4.52.24,9A165.75,165.75,0,0,1,135,151.8,136.08,136.08,0,0,1,125.84,177,100.91,100.91,0,0,1,112.46,198a70.52,70.52,0,0,1-16.27,14.46,54.58,54.58,0,0,1-7.9,4.13,45.71,45.71,0,0,1-34,.92,53.4,53.4,0,0,1-10.25-5A70.52,70.52,0,0,1,27.75,198,100.9,100.9,0,0,1,14.38,177a136.06,136.06,0,0,1-9.18-25.24,169.51,169.51,0,0,1,0-83.27,136.06,136.06,0,0,1,9.18-25.24A100.9,100.9,0,0,1,27.75,22.35,70.52,70.52,0,0,1,44,7.89a53.39,53.39,0,0,1,10.25-5,45.71,45.71,0,0,1,34,.92,54.57,54.57,0,0,1,7.9,4.13A67.35,67.35,0,0,1,108.63,18.1,90.06,90.06,0,0,1,121,34.4a120.54,120.54,0,0,1,9.54,20A146,146,0,0,1,136.34,74l.22,1H125.62l-.11-.68a174.91,174.91,0,0,0-5.44-23.07,128,128,0,0,0-7.18-18.33,90.71,90.71,0,0,0-6.44-11.17,60.89,60.89,0,0,0-9.24-10.84A21.94,21.94,0,0,0,93.26,8a52.09,52.09,0,0,0-5.6-2.77,44.09,44.09,0,0,0-32.84-.89,50.94,50.94,0,0,0-7.73,3.58,22,22,0,0,0-3.94,2.85,54.49,54.49,0,0,0-6.91,7.51,80.31,80.31,0,0,0-6.48,10A126.09,126.09,0,0,0,18.68,56.19a185.67,185.67,0,0,0-4.85,23.86,225.57,225.57,0,0,0-.53,56.08,194.8,194.8,0,0,0,3.79,21.74A146.88,146.88,0,0,0,24.84,182a103.85,103.85,0,0,0,6.41,12.67A65.09,65.09,0,0,0,43,209.43,21.94,21.94,0,0,0,47,212.3,51,51,0,0,0,54.82,216a44.09,44.09,0,0,0,32.84-.89,52.09,52.09,0,0,0,5.6-2.77,22,22,0,0,0,3.95-2.87,67.83,67.83,0,0,0,13.25-17.37,125.81,125.81,0,0,0,11.08-27.93,186.2,186.2,0,0,0,4.85-23.86,220,220,0,0,0,2-30.11q0-4.1-.15-8.19Z" fill="#fff"/></svg>