<svg xmlns="http://www.w3.org/2000/svg" viewBox="0 0 902.22 339.74"><title>Asset 5</title><rect x="194.11" y="71.6" width="11.95" height="219.18" fill="#fff" stroke="#fff" stroke-linecap="square" stroke-width="2.22"/><rect x="524.14" y="28.89" width="11.11" height="250.02" fill="#fff" stroke="#fff" stroke-linecap="square" stroke-width="2.22"/><rect x="614.42" y="28.89" width="11.11" height="250.02" fill="#fff" stroke="#fff" stroke-linecap="square" stroke-width="2.22"/><path d="M349.82,13.09C324.69,28.89,307.75,56.62,297.71,83c-10.83,28.45-15.26,56.59-15.26,86.87s4.43,58.43,15.27,86.89c10,26.37,27,54.09,52.1,69.88-21.32-17.34-34.09-48.21-40.92-72.88-7.67-27.72-10.73-55.25-10.73-83.9s3.06-56.17,10.73-83.9C315.73,61.3,328.5,30.43,349.82,13.09Z" fill="#fff" stroke="#fff" stroke-linecap="square" stroke-width="2.22"/><path d="M496,156c1.64,31.42-2.28,64.33-12.54,94.24-9.81,28.58-27.38,59.39-54.47,76.43,23-18.69,36.08-53,42.67-79.58,7.5-30.24,9.92-60.06,8.7-91.08Z" fill="#fff" stroke="#fff" stroke-linecap="square" stroke-width="2.22"/><path d="M476.14,114.31C470.74,82.06,457.21,36,429,13.09c34.36,21.6,53.36,64.78,61.41,101.22Z" fill="#fff" stroke="#fff" stroke-linecap="square" stroke-width="2.22"/><rect x="839.99" y="28.89" width="11.11" height="250.02" fill="#fff" stroke="#fff" stroke-linecap="square" stroke-width="2.22"/><path d="M750.67,279c30.1-14,44.58-55.63,49.68-83.42H790C786.62,219.62,776.11,264.1,750.67,279Z" fill="#fff" stroke="#fff" stroke-linecap="square" stroke-width="2.22"/><path d="M799.54,112.23C794,85.47,779.54,46.4,750.67,33c24.41,14.29,35,56,38.75,79.25Z" fill="#fff" stroke="#fff" stroke-linecap="square" stroke-width="2.22"/><path d="M714.86,33C693.63,42.85,680.17,67.21,673,87.11c-8.16,22.61-11.35,45-11.35,68.87s3.19,46.26,11.35,68.87c7.18,19.9,20.63,44.26,41.87,54.13-18.57-10.87-29-38.22-33.9-56.38-6-22-8.21-43.91-8.21-66.62S675,111.4,681,89.37C685.86,71.21,696.28,43.85,714.86,33Z" fill="#fff" stroke="#fff" stroke-linecap="square" stroke-width="2.22"/><path d="M116,26.29c22.89,8.19,41.52,26.12,48,50.16,2.46,9.1,2.55,18.13,2.55,27.37v186c0,.21.32,1-.1,1H155c-.54,0-.36-.46-.36-.8V108.38c0-8,.23-16-.82-24.08C150.8,61.05,138.66,37.09,116,26.29Z" fill="#fff" stroke="#fff" stroke-linecap="square" stroke-width="2.22"/><path d="M77.79,104.07c-20.89,9.58-40.3,22.86-54.43,41.64S.88,186,1.11,209.92c.5,51.41,44.2,83.47,93.09,80.48A72.32,72.32,0,0,1,36.58,267C21.42,250.39,15.81,229.38,15,207.88,13.43,163,37.42,123.54,77.79,104.07Z" fill="#fff" stroke="#fff" stroke-linecap="square" stroke-width="2.22"/><path d="M7.45,90.09c2.41-24.72,17.32-45.93,38.6-58a84.44,84.44,0,0,1,70-5.81" fill="none" stroke="#fff" stroke-linecap="square" stroke-width="2.22"/><path d="M93.67,290.43a98.18,98.18,0,0,0,22.15-3.78c15.34-4.83,27.66-12.11,38.81-23.84" fill="none" stroke="#fff" stroke-linecap="square" stroke-width="2.22"/><path d="M206.06,90.09q41.62-49.2,102.88-73.9" fill="none" stroke="#fff" stroke-linecap="square" stroke-width="2.22"/><path d="M77.79,104.07q29.77-13.74,76.61-13.92" fill="none" stroke="#fff" stroke-linecap="square" stroke-width="2.22"/><path d="M349.82,13.09a81.16,81.16,0,0,1,15.57-7.68,68.81,68.81,0,0,1,24-4.31c14.95,0,27.1,4.14,39.59,12" fill="none" stroke="#fff" stroke-linecap="square" stroke-width="2.22"/><path d="M349.82,326.65a81.17,81.17,0,0,0,15.57,7.68,68.81,68.81,0,0,0,24,4.31c14.95,0,27.1-4.14,39.59-12" fill="none" stroke="#fff" stroke-linecap="square" stroke-width="2.22"/><line x1="480.37" y1="155.98" x2="389.41" y2="155.98" fill="none" stroke="#fff" stroke-linecap="square" stroke-width="2.22"/><path d="M750.67,33a41.2,41.2,0,0,0-35.81,0" fill="none" stroke="#fff" stroke-linecap="square" stroke-width="2.22"/><path d="M714.86,279a41.2,41.2,0,0,0,35.81,0" fill="none" stroke="#fff" stroke-linecap="square" stroke-width="2.22"/><line x1="675.54" y1="28.89" x2="564.42" y2="28.89" fill="none" stroke="#fff" stroke-linecap="square" stroke-width="2.22"/><line x1="901.11" y1="28.89" x2="789.99" y2="28.89" fill="none" stroke="#fff" stroke-linecap="square" stroke-width="2.22"/></svg>