<svg xmlns="http://www.w3.org/2000/svg" viewBox="0 0 726.18 277.25"><defs><style>.cls-1{fill:#fff;}.cls-1,.cls-2{stroke:#fff;stroke-linecap:square;stroke-width:1.18px;}.cls-2{fill:none;}</style></defs><title>Asset 12</title><g id="Layer_2" data-name="Layer 2"><g id="logo"><rect class="cls-1" x="147.3" y="58.25" width="9.77" height="179.28"/><rect class="cls-1" x="417.25" y="23.31" width="9.09" height="204.5"/><rect class="cls-1" x="491.09" y="23.31" width="9.09" height="204.5"/><path class="cls-1" d="M274.66,10.39C254.11,23.31,240.25,46,232,67.57c-8.86,23.27-12.48,46.29-12.48,71.05s3.63,47.79,12.49,71.08c8.21,21.57,22.07,44.24,42.62,57.16-17.44-14.18-27.88-39.43-33.47-59.61-6.28-22.68-8.78-45.19-8.78-68.62s2.5-45.95,8.78-68.62C246.78,49.83,257.22,24.57,274.66,10.39Z"/><path class="cls-1" d="M394.23,127.27c1.34,25.7-1.86,52.62-10.26,77.08-8,23.38-22.39,48.58-44.55,62.51,18.8-15.29,29.52-43.38,34.9-65.1,6.14-24.74,8.11-49.12,7.12-74.5Z"/><path class="cls-1" d="M378,93.18c-4.42-26.38-15.48-64-38.56-82.79,28.11,17.67,43.64,53,50.23,82.79Z"/><rect class="cls-1" x="675.6" y="23.31" width="9.09" height="204.5"/><path class="cls-1" d="M602.54,227.88c24.62-11.45,36.47-45.5,40.64-68.24h-8.43C631.94,179.32,623.35,215.7,602.54,227.88Z"/><path class="cls-1" d="M642.51,91.48c-4.49-21.88-16.35-53.84-40-64.82,20,11.69,28.66,45.84,31.69,64.82Z"/><path class="cls-1" d="M573.25,26.66c-17.37,8.07-28.37,28-34.25,44.28-6.67,18.49-9.28,36.8-9.28,56.34s2.61,37.84,9.28,56.34c5.87,16.28,16.88,36.2,34.25,44.27-15.19-8.89-23.72-31.26-27.73-46.12-4.87-18-6.71-35.92-6.71-54.49s1.84-36.47,6.71-54.48C549.53,57.93,558.05,35.55,573.25,26.66Z"/><path class="cls-1" d="M94.57,21.18c18.72,6.7,34,21.36,39.28,41,2,7.44,2.09,14.83,2.09,22.38V236.7c0,.17.27.83-.08.83h-9.4c-.44,0-.29-.38-.29-.66V88.33c0-6.58.19-13.12-.67-19.69C123,49.62,113.1,30,94.57,21.18Z"/><path class="cls-1" d="M63.31,84.8c-17.09,7.83-33,18.7-44.52,34.06S.4,151.83.59,171.39c.41,42.05,36.16,68.28,76.14,65.83A59.15,59.15,0,0,1,29.6,218.07c-12.4-13.58-17-30.77-17.62-48.35C10.67,133,30.29,100.73,63.31,84.8Z"/><path class="cls-2" d="M5.78,73.37c2-20.22,14.16-37.57,31.58-47.43a69.07,69.07,0,0,1,57.22-4.75"/><path class="cls-2" d="M76.3,237.24a80.31,80.31,0,0,0,18.12-3.09c12.55-4,22.62-9.9,31.75-19.5"/><path class="cls-2" d="M157.07,73.37q34-40.24,84.15-60.45"/><path class="cls-2" d="M63.31,84.8Q87.66,73.57,126,73.42"/><path class="cls-2" d="M274.66,10.39A66.39,66.39,0,0,1,287.4,4.11,56.29,56.29,0,0,1,307,.59c12.22,0,22.17,3.38,32.38,9.8"/><path class="cls-2" d="M274.66,266.86a66.39,66.39,0,0,0,12.74,6.28A56.29,56.29,0,0,0,307,276.67c12.22,0,22.17-3.38,32.38-9.8"/><line class="cls-2" x1="381.44" y1="127.27" x2="307.04" y2="127.27"/><path class="cls-2" d="M602.54,26.66a33.7,33.7,0,0,0-29.29,0"/><path class="cls-2" d="M573.25,227.88a33.7,33.7,0,0,0,29.29,0"/><line class="cls-2" x1="541.08" y1="23.31" x2="450.19" y2="23.31"/><line class="cls-2" x1="725.59" y1="23.31" x2="634.7" y2="23.31"/></g></g></svg>