<svg xmlns="http://www.w3.org/2000/svg" viewBox="0 0 575.2 220.32"><title>Asset 5</title><polygon points="502.48 18 502.48 19.62 534.43 19.62 534.43 181.62 543.25 181.62 543.25 19.62 575.2 19.62 575.2 18 502.48 18" fill="#4a3142"/><path d="M92.44,66.69A54.42,54.42,0,0,0,89,51.2,45.44,45.44,0,0,0,83.47,41a37.39,37.39,0,0,0-11-10.23,21.92,21.92,0,0,0-4.81-2.14,49.39,49.39,0,0,0-14.79-2.22C29.4,26.38,7.8,43,5.44,67.15l0,.33H3.78l0-.48c2.44-25,24.74-42.23,49-42.23A50.63,50.63,0,0,1,70.4,27.82c16.71,6,29.68,20.84,30.85,39.12q.12,2,.18,3.91,0,.35,0,.7V189H92.62v-.36q0-58.66,0-117.32l-.11-3.69,0-.27q0-.17,0-.34Z" fill="#4a3142"/><path d="M125.25,58.75a167.76,167.76,0,0,1,66.2-47.42l.23-.09V9.49l-.83.34a169.25,169.25,0,0,0-65.55,46.45V45.68h-9.36V189.31h9.36Q125.27,124,125.25,58.75Z" fill="#4a3142"/><path d="M242.93,102v-1.62h70.2l0,.77q.24,4.52.24,9a165.75,165.75,0,0,1-5.2,41.64A136.08,136.08,0,0,1,299,177,100.91,100.91,0,0,1,285.64,198a70.52,70.52,0,0,1-16.27,14.46,54.58,54.58,0,0,1-7.9,4.13,45.71,45.71,0,0,1-34,.92,53.4,53.4,0,0,1-10.25-5A70.52,70.52,0,0,1,200.93,198,100.9,100.9,0,0,1,187.56,177a136.06,136.06,0,0,1-9.18-25.24,169.51,169.51,0,0,1,0-83.27,136.06,136.06,0,0,1,9.18-25.24,100.9,100.9,0,0,1,13.38-20.94A70.52,70.52,0,0,1,217.2,7.89a53.39,53.39,0,0,1,10.25-5,45.71,45.71,0,0,1,34,.92,54.57,54.57,0,0,1,7.9,4.13A67.35,67.35,0,0,1,281.81,18.1,90.06,90.06,0,0,1,294.2,34.4a120.54,120.54,0,0,1,9.54,20A146,146,0,0,1,309.52,74l.22,1H298.8l-.11-.68a174.91,174.91,0,0,0-5.44-23.07,128,128,0,0,0-7.18-18.33,90.71,90.71,0,0,0-6.44-11.17,60.89,60.89,0,0,0-9.24-10.84A21.94,21.94,0,0,0,266.44,8a52.09,52.09,0,0,0-5.6-2.77A44.09,44.09,0,0,0,228,4.36a50.94,50.94,0,0,0-7.73,3.58,22,22,0,0,0-3.94,2.85,54.49,54.49,0,0,0-6.91,7.51,80.31,80.31,0,0,0-6.48,10,126.09,126.09,0,0,0-11.08,27.93A185.67,185.67,0,0,0,187,80.05a225.57,225.57,0,0,0-.53,56.08,194.8,194.8,0,0,0,3.79,21.74A146.88,146.88,0,0,0,198,182a103.85,103.85,0,0,0,6.41,12.67,65.09,65.09,0,0,0,11.76,14.79,21.94,21.94,0,0,0,3.95,2.87A51,51,0,0,0,228,216a44.09,44.09,0,0,0,32.84-.89,52.09,52.09,0,0,0,5.6-2.77,22,22,0,0,0,3.95-2.87,67.83,67.83,0,0,0,13.25-17.37,125.81,125.81,0,0,0,11.08-27.93,186.2,186.2,0,0,0,4.85-23.86,220,220,0,0,0,2-30.11q0-4.1-.15-8.19Z" fill="#4a3142"/><path d="M510,73.62l-.2-1A115.45,115.45,0,0,0,504,53a84,84,0,0,0-7.75-15.09,58.81,58.81,0,0,0-6.87-8.64,39.92,39.92,0,0,0-11.66-8.54,27.51,27.51,0,0,0-23.88,0,36.5,36.5,0,0,0-7.49,4.73A49.23,49.23,0,0,0,439.69,32a74.07,74.07,0,0,0-11.35,19,117.88,117.88,0,0,0-7.83,28.33,145.39,145.39,0,0,0-1.22,32.9A138.28,138.28,0,0,0,422,131.16a112.42,112.42,0,0,0,6.32,20.16,85.75,85.75,0,0,0,5.14,10.21,64.91,64.91,0,0,0,6.22,8.8,49,49,0,0,0,6.63,6.54,36.59,36.59,0,0,0,7.5,4.73,27.51,27.51,0,0,0,23.88,0,40.15,40.15,0,0,0,12-8.88,58.9,58.9,0,0,0,6.05-7.57,82.76,82.76,0,0,0,8.13-15.49,116.78,116.78,0,0,0,6.47-22.7l.18-1h-8.35l-.1.7A141.8,141.8,0,0,1,497.73,147a94,94,0,0,1-6,15.63,58.63,58.63,0,0,1-5.41,8.86,38.65,38.65,0,0,1-4.84,5.39,21.18,21.18,0,0,1-9.91,5.21,25.21,25.21,0,0,1-11.46,0,21.18,21.18,0,0,1-10-5.23,37.69,37.69,0,0,1-4-4.29A58.66,58.66,0,0,1,439,160.79a106.45,106.45,0,0,1-7.31-22,157.94,157.94,0,0,1-2.87-17.27,186,186,0,0,1-.93-28.65,173.23,173.23,0,0,1,2.07-20.53c.75-4.58,1.71-9.14,2.9-13.63a94.1,94.1,0,0,1,8.05-21,46.41,46.41,0,0,1,9.19-12.25,21.18,21.18,0,0,1,10-5.23,25.21,25.21,0,0,1,11.46,0,21.19,21.19,0,0,1,9.91,5.2,38.13,38.13,0,0,1,4.52,5,56.74,56.74,0,0,1,5.27,8.38,90.32,90.32,0,0,1,6,14.8,136.61,136.61,0,0,1,4.47,19.31l.11.68Z" fill="#4a3142"/><rect x="329.78" y="18" width="8.82" height="163.62" fill="#4a3142"/><polygon points="356.33 18 356.33 19.62 388.28 19.62 388.28 181.62 397.1 181.62 397.1 19.62 429.05 19.62 429.05 18 356.33 18" fill="#4a3142"/><path d="M92.41,66.31l.09,1.27v.35c-20.27.16-41.68,3-58.57,16.92a68,68,0,0,0-24.6,54.83c.34,10.67,2.66,19.58,9,28.44A45.37,45.37,0,0,0,44.1,185.84c10,2.52,20.94,1.2,30.31-2.63a52.75,52.75,0,0,0,13.44-7.89q1.47-1.19,2.84-2.47.68-.64,1.34-1.31c.18-.18.58-1,.58-.48v2c0,.45-.38.51-.62.73q-.72.68-1.47,1.34-1.53,1.34-3.15,2.55c-16.93,12.67-40,14.62-59,5.73C8,173.86-2,154.62.34,132.56,2.62,111.3,15.89,93.43,33.19,82.17,52,70,70.69,66.49,92.41,66.31Z" fill="#4a3142"/></svg>