<svg xmlns="http://www.w3.org/2000/svg" viewBox="0 0 300.74 113.25"><title>Asset 59</title><rect x="64.7" y="23.87" width="3.98" height="73.06" fill="#54414e" stroke="#54414e" stroke-linecap="square" stroke-width="0.74"/><rect x="174.71" y="9.63" width="3.7" height="83.34" fill="#54414e" stroke="#54414e" stroke-linecap="square" stroke-width="0.74"/><rect x="204.81" y="9.63" width="3.7" height="83.34" fill="#54414e" stroke="#54414e" stroke-linecap="square" stroke-width="0.74"/><path d="M116.61,4.36c-8.38,5.27-14,14.51-17.37,23.3a79.41,79.41,0,0,0-5.09,29,79.4,79.4,0,0,0,5.09,29c3.35,8.79,9,18,17.37,23.29C109.5,103.1,105.24,92.81,103,84.59a103.35,103.35,0,0,1-3.58-28,103.35,103.35,0,0,1,3.58-28C105.24,20.43,109.5,10.14,116.61,4.36Z" fill="#54414e" stroke="#54414e" stroke-linecap="square" stroke-width="0.74"/><path d="M165.33,52a84.42,84.42,0,0,1-4.18,31.41c-3.27,9.53-9.13,19.8-18.16,25.48,7.66-6.23,12-17.68,14.22-26.53A106.74,106.74,0,0,0,160.12,52Z" fill="#54414e" stroke="#54414e" stroke-linecap="square" stroke-width="0.74"/><path d="M158.71,38.1C156.91,27.35,152.4,12,143,4.36c11.45,7.2,17.79,21.59,20.47,33.74Z" fill="#54414e" stroke="#54414e" stroke-linecap="square" stroke-width="0.74"/><rect x="280" y="9.63" width="3.7" height="83.34" fill="#54414e" stroke="#54414e" stroke-linecap="square" stroke-width="0.74"/><path d="M250.22,93c10-4.66,14.86-18.54,16.56-27.81h-3.43C262.21,73.21,258.7,88,250.22,93Z" fill="#54414e" stroke="#54414e" stroke-linecap="square" stroke-width="0.74"/><path d="M266.51,37.41c-1.83-8.92-6.66-21.94-16.29-26.42,8.14,4.76,11.68,18.68,12.92,26.42Z" fill="#54414e" stroke="#54414e" stroke-linecap="square" stroke-width="0.74"/><path d="M238.29,11c-7.08,3.29-11.56,11.41-14,18a66.09,66.09,0,0,0-3.78,23,66.09,66.09,0,0,0,3.78,23c2.39,6.63,6.88,14.75,14,18-6.19-3.62-9.66-12.74-11.3-18.79A84,84,0,0,1,224.25,52,84,84,0,0,1,227,29.79C228.62,23.74,232.09,14.62,238.29,11Z" fill="#54414e" stroke="#54414e" stroke-linecap="square" stroke-width="0.74"/><path d="M38.67,8.76a24.93,24.93,0,0,1,16,16.72,34.24,34.24,0,0,1,.85,9.12v62c0,.07.11.34,0,.34H51.67c-.18,0-.12-.15-.12-.27V36.13a61.83,61.83,0,0,0-.27-8C50.27,20.35,46.22,12.36,38.67,8.76Z" fill="#54414e" stroke="#54414e" stroke-linecap="square" stroke-width="0.74"/><path d="M25.93,34.69C19,37.88,12.5,42.31,7.79,48.57A34.61,34.61,0,0,0,.37,70C.54,87.11,15.11,97.8,31.4,96.8A24.11,24.11,0,0,1,12.19,89C7.14,83.46,5.27,76.46,5,69.29A36.39,36.39,0,0,1,25.93,34.69Z" fill="#54414e" stroke="#54414e" stroke-linecap="square" stroke-width="0.74"/><path d="M2.48,30A25.15,25.15,0,0,1,15.35,10.7,28.15,28.15,0,0,1,38.67,8.76" fill="none" stroke="#54414e" stroke-linecap="square" stroke-width="0.74"/><path d="M31.22,96.81a32.73,32.73,0,0,0,7.38-1.26,29.08,29.08,0,0,0,12.94-7.95" fill="none" stroke="#54414e" stroke-linecap="square" stroke-width="0.74"/><path d="M68.69,30A86.63,86.63,0,0,1,103,5.39" fill="none" stroke="#54414e" stroke-linecap="square" stroke-width="0.74"/><path d="M25.93,34.69Q35.85,30.11,51.47,30" fill="none" stroke="#54414e" stroke-linecap="square" stroke-width="0.74"/><path d="M116.61,4.36a27.05,27.05,0,0,1,5.19-2.56,22.94,22.94,0,0,1,8-1.44,23.62,23.62,0,0,1,13.2,4" fill="none" stroke="#54414e" stroke-linecap="square" stroke-width="0.74"/><path d="M116.61,108.88a27.06,27.06,0,0,0,5.19,2.56,22.94,22.94,0,0,0,8,1.44,23.62,23.62,0,0,0,13.2-4" fill="none" stroke="#54414e" stroke-linecap="square" stroke-width="0.74"/><line x1="160.12" y1="51.99" x2="129.8" y2="51.99" fill="none" stroke="#54414e" stroke-linecap="square" stroke-width="0.74"/><path d="M250.22,11a13.73,13.73,0,0,0-11.94,0" fill="none" stroke="#54414e" stroke-linecap="square" stroke-width="0.74"/><path d="M238.29,93a13.73,13.73,0,0,0,11.94,0" fill="none" stroke="#54414e" stroke-linecap="square" stroke-width="0.74"/><line x1="225.18" y1="9.63" x2="188.14" y2="9.63" fill="none" stroke="#54414e" stroke-linecap="square" stroke-width="0.74"/><line x1="300.37" y1="9.63" x2="263.33" y2="9.63" fill="none" stroke="#54414e" stroke-linecap="square" stroke-width="0.74"/></svg>